<svg xmlns="http://www.w3.org/2000/svg" viewBox="0 0 32 32">
  <!-- Teal circular background -->
  <circle cx="16" cy="16" r="15" fill="#2a7b7b"/>

  <!-- Fork silhouette (simplified) -->
  <g fill="none" stroke="#f5f0e6" stroke-width="1.2" stroke-linecap="round">
    <!-- Fork handle -->
    <line x1="10" y1="28" x2="10" y2="14"/>
    <!-- Fork head -->
    <line x1="10" y1="14" x2="10" y2="6"/>
    <line x1="7" y1="6" x2="7" y2="12"/>
    <line x1="13" y1="6" x2="13" y2="12"/>
    <!-- Fork tines connection -->
    <path d="M7 12 Q10 14 13 12"/>
  </g>

  <!-- Face profile (simplified line art) -->
  <g fill="none" stroke="#e8b866" stroke-width="1" stroke-linecap="round">
    <!-- Forehead to chin profile -->
    <path d="M18 6 Q22 8 22 10 Q21 12 22 14 Q23 16 21 18 Q20 20 21 22 Q20 24 18 26"/>
    <!-- Eye -->
    <ellipse cx="19" cy="11" rx="1.5" ry="0.8"/>
    <!-- Lips -->
    <path d="M21 17 Q22 17.5 21 18"/>
  </g>

  <!-- Subtle outer ring -->
  <circle cx="16" cy="16" r="14.5" fill="none" stroke="#f5f0e6" stroke-width="0.5" opacity="0.3"/>
</svg>
